HIERARCHY
ROOT Hips
{
	OFFSET 0.000000 0.000000 0.000000
	CHANNELS 6 Xposition Yposition Zposition Xrotation Yrotation Zrotation
	JOINT LeftUpLeg_virtual
	{
		OFFSET 0.000000 0.000000 0.000000
		CHANNELS 3 Xrotation Yrotation Zrotation
		JOINT LeftUpLeg
		{
			OFFSET 15.427100 -6.655098 0.678600
			CHANNELS 3 Xrotation Yrotation Zrotation
			JOINT LeftLeg
			{
				OFFSET 4.081073 -39.591068 13.024000
				CHANNELS 3 Xrotation Yrotation Zrotation
				JOINT LeftFoot
				{
					OFFSET -4.081074 -37.707932 -15.979700
					CHANNELS 3 Xrotation Yrotation Zrotation
					JOINT LeftToeBase
					{
						OFFSET 5.346399 -15.068900 20.645000
						CHANNELS 3 Xrotation Yrotation Zrotation
						JOINT LeftToe_End
						{
							OFFSET 2.754700 0.931300 11.300900
							CHANNELS 3 Xrotation Yrotation Zrotation
							End Site
							{
								OFFSET 0 0 0
							}
						}
					}
				}
			}
		}
	}
	JOINT RightUpLeg_virtual
	{
		OFFSET 0.000000 0.000000 0.000000
		CHANNELS 3 Xrotation Yrotation Zrotation
		JOINT RightUpLeg
		{
			OFFSET -15.569500 -6.655098 0.678600
			CHANNELS 3 Xrotation Yrotation Zrotation
			JOINT RightLeg
			{
				OFFSET -4.081825 -39.591045 13.023800
				CHANNELS 3 Xrotation Yrotation Zrotation
				JOINT RightFoot
				{
					OFFSET 4.081824 -37.707954 -15.979600
					CHANNELS 3 Xrotation Yrotation Zrotation
					JOINT RightToeBase
					{
						OFFSET -5.346400 -15.068900 20.645000
						CHANNELS 3 Xrotation Yrotation Zrotation
						JOINT RightToe_End
						{
							OFFSET -2.754700 0.931300 11.300900
							CHANNELS 3 Xrotation Yrotation Zrotation
							End Site
							{
								OFFSET 0 0 0
							}
						}
					}
				}
			}
		}
	}
	JOINT Spine_virtual
	{
		OFFSET 0.000000 0.000000 0.000000
		CHANNELS 3 Xrotation Yrotation Zrotation
		JOINT Spine
		{
			OFFSET -0.279200 12.230698 -2.892100
			CHANNELS 3 Xrotation Yrotation Zrotation
			JOINT Spine1
			{
				OFFSET -0.232667 10.192268 -1.242267
				CHANNELS 3 Xrotation Yrotation Zrotation
				JOINT Spine1_split
				{
					OFFSET -0.232667 10.192268 -1.242267
					CHANNELS 3 Xrotation Yrotation Zrotation
					JOINT Spine2
					{
						OFFSET -0.232667 10.192268 -1.242267
						CHANNELS 3 Xrotation Yrotation Zrotation
						JOINT Neck_virtual
						{
							OFFSET 0.000000 0.000000 0.000000
							CHANNELS 3 Xrotation Yrotation Zrotation
							JOINT Neck
							{
								OFFSET -0.418800 17.814194 8.416900
								CHANNELS 3 Xrotation Yrotation Zrotation
								JOINT Head
								{
									OFFSET 0.000000 7.031097 3.806800
									CHANNELS 3 Xrotation Yrotation Zrotation
									JOINT HeadTop_End
									{
										OFFSET 0.000000 24.646606 12.978600
										CHANNELS 3 Xrotation Yrotation Zrotation
										End Site
										{
											OFFSET 0 0 0
										}
									}
								}
							}
						}
						JOINT LeftShoulder_virtual
						{
							OFFSET 0.000000 0.000000 0.000000
							CHANNELS 3 Xrotation Yrotation Zrotation
							JOINT LeftShoulder
							{
								OFFSET 8.476499 7.247704 -3.868750
								CHANNELS 3 Xrotation Yrotation Zrotation
								JOINT LeftShoulder_split
								{
									OFFSET 8.476499 7.247704 -3.868750
									CHANNELS 3 Xrotation Yrotation Zrotation
									JOINT LeftArm
									{
										OFFSET 9.308998 -2.777710 0.208600
										CHANNELS 3 Xrotation Yrotation Zrotation
										JOINT LeftForeArm
										{
											OFFSET 29.972298 0.000000 0.000000
											CHANNELS 3 Xrotation Yrotation Zrotation
											JOINT LeftHand
											{
												OFFSET 26.026505 0.000000 0.000000
												CHANNELS 3 Xrotation Yrotation Zrotation
												End Site
												{
													OFFSET 0 0 0
												}
											}
										}
									}
								}
							}
						}
						JOINT RightShoulder_virtual
						{
							OFFSET 0.000000 0.000000 0.000000
							CHANNELS 3 Xrotation Yrotation Zrotation
							JOINT RightShoulder
							{
								OFFSET -7.570500 7.247704 -3.868750
								CHANNELS 3 Xrotation Yrotation Zrotation
								JOINT RightShoulder_split
								{
									OFFSET -7.570500 7.247704 -3.868750
									CHANNELS 3 Xrotation Yrotation Zrotation
									JOINT RightArm
									{
										OFFSET -9.308998 -2.777710 0.208500
										CHANNELS 3 Xrotation Yrotation Zrotation
										JOINT RightForeArm
										{
											OFFSET -29.972300 0.000000 0.000000
											CHANNELS 3 Xrotation Yrotation Zrotation
											JOINT RightHand
											{
												OFFSET -26.026505 0.000000 0.000000
												CHANNELS 3 Xrotation Yrotation Zrotation
												End Site
												{
													OFFSET 0 0 0
												}
											}
										}
									}
								}
							}
						}
					}
				}
			}
		}
	}
}
MOTION
Frames: 7
Frame Time: 0.03333333
-0.918518 74.571793 -1.727070 0.000000 0.000000 0.000000 -19.738550 1.240363 -0.490938 -13.142357 -0.733165 16.363542 53.570164 0.477922 -0.053801 -26.445526 1.492830 -14.302667 -1.564174 -0.807954 -0.937367 0.000000 0.000000 0.000000 -19.225815 1.397730 -0.401278 -6.997994 -7.530389 -18.949048 50.954321 4.111486 1.295970 -29.594291 -4.066885 13.463747 3.219527 -0.008927 -0.527901 0.000000 0.000000 0.000000 -19.741735 3.155570 -0.890259 19.033570 -1.572458 3.188915 9.432642 -0.269322 1.384620 1.508658 4.358398 -1.251764 0.000000 0.000000 0.000000 8.168683 -0.728490 1.289251 -15.782749 0.953822 -1.912186 -18.308720 -2.328646 1.498892 0.000000 0.000000 0.000000 10.238770 -1.101665 1.471076 1.644752 -7.654984 -6.344171 -8.529966 -0.988464 -5.973182 -7.058415 -17.495101 -53.596792 64.462533 -58.417652 56.700682 0.000000 0.000000 0.000000 8.831138 -0.598132 1.154988 10.555100 -0.525737 14.045341 -1.992223 1.572792 -1.975570 -24.309569 10.929377 63.162748 82.875050 66.645735 -79.060170 0.000000 0.000000 0.000000 
-0.846873 74.487198 -1.733471 0.000000 0.000000 0.000000 -19.580908 1.876699 -0.371447 -13.246029 -0.806274 16.162900 53.745502 0.579567 0.193530 -26.304056 1.584673 -14.426101 -1.941310 -0.808477 -0.878031 0.000000 0.000000 0.000000 -19.048255 2.027020 -0.364215 -6.901984 -7.199959 -19.078457 50.678549 4.255574 1.167870 -29.556148 -4.191982 13.582418 2.739243 0.050678 -0.539956 0.000000 0.000000 0.000000 -19.393310 3.177856 -0.796913 18.887150 -1.563384 3.099128 9.376031 -0.403383 1.234655 1.527111 3.478287 -1.367612 0.000000 0.000000 0.000000 8.175824 -0.720157 1.149309 -14.996927 0.977980 -2.339975 -18.592041 -1.782591 1.281450 0.000000 0.000000 0.000000 10.095222 -1.142674 1.529129 1.524420 -8.056593 -6.446959 -7.450556 -0.192722 -5.301328 -8.834370 -16.018049 -53.455663 62.043861 -58.696528 53.999909 0.000000 0.000000 0.000000 9.018703 -0.673941 1.162380 10.753119 -0.664240 15.035625 -3.450670 1.328156 -1.071964 -24.135139 8.974625 59.964246 80.815550 66.360834 -75.789227 0.000000 0.000000 0.000000 
-0.766301 74.406425 -1.754185 0.000000 0.000000 0.000000 -18.966880 3.252810 -0.247457 -13.731480 -1.537057 15.876679 54.148937 0.707085 0.529768 -26.143019 1.361885 -14.104529 -2.339388 -0.809407 -0.751439 0.000000 0.000000 0.000000 -18.418008 3.776572 -0.229487 -6.571583 -7.496938 -19.105216 50.239846 4.203942 1.093304 -29.547030 -4.578318 13.482419 2.503455 0.055439 -0.336307 0.000000 0.000000 0.000000 -18.782771 4.094991 -0.549187 18.673980 -1.596474 2.937886 9.071979 -0.643963 1.062511 1.169847 2.486026 -0.542435 0.000000 0.000000 0.000000 7.997350 -0.856031 1.070417 -13.519625 0.808454 -2.775534 -18.520246 -1.250701 0.495223 0.000000 0.000000 0.000000 9.684734 -1.243384 1.609141 1.303116 -9.258567 -6.747268 -6.682106 0.292123 -4.563116 -10.195510 -14.690871 -51.811004 58.068014 -57.301749 48.196779 0.000000 0.000000 0.000000 9.085275 -0.956951 1.128759 10.851612 -1.153030 16.718802 -4.289882 2.046415 -0.070434 -23.271377 6.024113 53.060543 85.874671 68.563952 -79.126840 0.000000 0.000000 0.000000 
-0.669788 74.395744 -1.801163 0.000000 0.000000 0.000000 -17.921759 5.200995 -0.164738 -14.599012 -2.933844 15.505101 54.448953 0.805785 0.873604 -26.044874 0.886330 -13.500239 -2.298252 -0.792335 -0.665981 0.000000 0.000000 0.000000 -17.472725 6.307975 -0.074576 -6.165906 -8.398873 -19.071608 49.749438 3.986946 1.106228 -29.650674 -5.231986 13.208634 2.677533 0.020954 -0.047990 0.000000 0.000000 0.000000 -17.860111 5.779221 -0.269581 18.420091 -1.714629 2.751292 8.536039 -1.021911 0.923855 0.726292 1.513870 0.693087 0.000000 0.000000 0.000000 7.609933 -1.134101 1.090423 -11.798550 0.403707 -2.781893 -18.174186 -0.691358 -0.719559 0.000000 0.000000 0.000000 9.112710 -1.455195 1.712410 1.043539 -10.864476 -7.325163 -5.577323 0.053135 -3.993309 -10.650076 -13.957886 -48.874587 54.014632 -54.632211 40.885540 0.000000 0.000000 0.000000 8.828590 -1.422665 1.080616 10.815219 -2.004789 18.443083 -4.561962 3.026826 0.633127 -23.301073 2.404094 44.502996 97.541453 72.225630 -89.187108 0.000000 0.000000 0.000000 
-0.566488 74.544579 -1.862434 0.000000 0.000000 0.000000 -16.497043 7.647876 -0.127944 -15.786913 -4.873222 14.951762 54.374245 0.799359 1.140128 -25.848194 0.227132 -12.980489 -1.792999 -0.741729 -0.668228 0.000000 0.000000 0.000000 -16.299458 9.165465 0.052801 -5.742520 -9.853032 -19.017209 49.211841 3.651167 1.245052 -29.870135 -6.083625 12.853994 3.169945 -0.014861 0.168105 0.000000 0.000000 0.000000 -16.666713 8.095664 -0.039481 18.166111 -1.931996 2.572277 7.842699 -1.536168 0.872182 0.440075 1.005379 1.089892 0.000000 0.000000 0.000000 7.086353 -1.576945 1.257847 -10.195102 -0.327168 -1.996784 -17.737916 -0.282633 -2.050345 0.000000 0.000000 0.000000 8.404157 -1.811815 1.831225 0.819600 -12.537230 -8.115494 -4.409746 -0.413111 -3.719672 -10.120102 -13.758909 -45.039801 51.301138 -51.956296 33.887707 0.000000 0.000000 0.000000 8.169656 -2.048616 1.054748 10.574238 -3.320561 19.326896 -3.297916 3.678716 0.602282 -26.549746 -1.043166 36.329568 118.858201 75.378125 -109.450339 0.000000 0.000000 0.000000 
-0.407958 74.990242 -1.893383 0.000000 0.000000 0.000000 -14.833327 10.411350 -0.097445 -17.137744 -7.037990 14.125378 53.779506 0.655779 1.248154 -25.245238 -0.499680 -12.840190 -1.176238 -0.663619 -0.702373 0.000000 0.000000 0.000000 -14.948255 11.956481 0.152367 -5.297327 -11.760130 -19.002397 48.461767 3.263120 1.487217 -30.096549 -7.007668 12.486726 3.718946 -0.022828 0.205788 0.000000 0.000000 0.000000 -15.317061 10.702857 0.143660 17.932373 -2.254966 2.447133 7.042881 -2.155123 0.932722 0.176821 0.878414 0.598924 0.000000 0.000000 0.000000 6.554663 -2.166621 1.537158 -8.955712 -1.544686 -0.282499 -17.267832 -0.376846 -3.209774 0.000000 0.000000 0.000000 7.607456 -2.257071 1.942952 0.691485 -13.939982 -9.058573 -3.291506 -0.877546 -3.761668 -9.251516 -13.804187 -40.622188 49.886510 -50.420074 27.763204 0.000000 0.000000 0.000000 7.246038 -2.727824 1.079653 10.101290 -4.915842 18.457017 -1.259450 4.177005 0.271327 -34.091779 -2.662992 30.603219 145.454452 75.644454 -135.585457 0.000000 0.000000 0.000000 
-0.183194 75.741585 -1.726284 0.000000 0.000000 0.000000 -13.119806 13.222953 0.015290 -18.443085 -9.018967 12.986805 52.618015 0.589918 1.117835 -24.155719 -1.128271 -12.820188 -0.774207 -0.577722 -0.732030 0.000000 0.000000 0.000000 -13.473881 14.521139 0.317596 -4.908940 -14.026033 -19.171115 47.171588 2.912518 1.803533 -30.126042 -7.804808 12.197851 4.194261 0.001735 0.071344 0.000000 0.000000 0.000000 -13.917988 13.280100 0.291504 17.739371 -2.559344 2.364154 6.282601 -2.704270 1.100542 0.413775 0.913805 -0.178048 0.000000 0.000000 0.000000 6.108009 -2.700096 1.853046 -8.288399 -3.155669 2.134058 -16.990248 -1.053128 -3.963152 0.000000 0.000000 0.000000 6.798648 -2.680024 2.062917 0.646391 -15.052902 -10.041003 -2.412306 -1.490895 -4.103496 -8.724374 -13.563922 -36.329913 48.625175 -50.019852 22.096051 0.000000 0.000000 0.000000 6.169393 -3.337732 1.167767 9.354199 -6.508356 15.732914 0.394540 4.381079 0.365959 -46.202729 -1.658836 27.900182 162.496908 73.872321 -152.581153 0.000000 0.000000 0.000000 
